<svg width="25" height="21" viewBox="0 0 25 21" fill="none" xmlns="http://www.w3.org/2000/svg">
<path d="M24.3284 8.90865C24.3279 8.90818 24.3273 8.90771 24.3267 8.90724L14.1277 0.552552C13.6929 0.196268 13.115 0 12.5002 0C11.8854 0 11.3074 0.196112 10.8724 0.552396L0.67873 8.90287C0.675296 8.90568 0.671862 8.90865 0.668429 8.91146C-0.224301 9.647 -0.222775 10.8404 0.672816 11.5741C1.08198 11.9094 1.62239 12.1036 2.20019 12.124C2.22365 12.1258 2.2473 12.1268 2.27115 12.1268H2.67764V18.2753C2.67764 19.492 3.88607 20.4819 5.37167 20.4819H9.36187C9.76626 20.4819 10.0944 20.2133 10.0944 19.8819V15.0614C10.0944 14.5062 10.6456 14.0546 11.3234 14.0546H13.6769C14.3547 14.0546 14.9059 14.5062 14.9059 15.0614V19.8819C14.9059 20.2133 15.2339 20.4819 15.6384 20.4819H19.6286C21.1142 20.4819 22.3227 19.492 22.3227 18.2753V12.1268H22.6996C23.3142 12.1268 23.8922 11.9307 24.3273 11.5744C25.2239 10.8395 25.2242 9.64403 24.3284 8.90865Z" fill="#0A10A3"/>
</svg>
