<svg width="25" height="25" viewBox="0 0 25 25" fill="none" xmlns="http://www.w3.org/2000/svg">
<path d="M14.8438 18.75H17.9688V21.875H14.8438V18.75ZM20.3125 18.75H23.4375V21.875H20.3125V18.75ZM14.8438 13.2812H17.9688V16.4062H14.8438V13.2812ZM20.3125 13.2812H23.4375V16.4062H20.3125V13.2812Z" fill="black"/>
<path d="M13.2812 18.75H3.125V7.8125H21.875V11.7188H23.4375V7.8125C23.4371 7.39823 23.2723 7.00104 22.9794 6.7081C22.6865 6.41517 22.2893 6.25041 21.875 6.25H17.1875V3.125C17.1871 2.71073 17.0223 2.31354 16.7294 2.0206C16.4365 1.72767 16.0393 1.56291 15.625 1.5625H9.375C8.96073 1.56291 8.56354 1.72767 8.2706 2.0206C7.97767 2.31354 7.81291 2.71073 7.8125 3.125V6.25H3.125C2.71073 6.25041 2.31354 6.41517 2.0206 6.7081C1.72767 7.00104 1.56291 7.39823 1.5625 7.8125V18.75C1.56291 19.1643 1.72767 19.5615 2.0206 19.8544C2.31354 20.1473 2.71073 20.3121 3.125 20.3125H13.2812V18.75ZM9.375 3.125H15.625V6.25H9.375V3.125Z" fill="black"/>
</svg>
